<svg width="1098" height="613" viewBox="0 0 1098 613" fill="none" xmlns="http://www.w3.org/2000/svg">
<path d="M2.20018 449H25.4002L29.4002 501.6V511.8H31.8002V501.6L35.8002 449H59.0002V519H47.0002V472.2L48.2002 456.2H45.8002L40.6002 519H20.8002L15.4002 456.2H13.0002L14.2002 472.2V519H2.20018V449ZM69.9307 507H86.7307V481.4H71.1307V469.4H99.3307V507H113.731V519H69.9307V507ZM102.431 454.7C102.431 456.033 102.164 457.3 101.631 458.5C101.164 459.633 100.497 460.633 99.6307 461.5C98.764 462.3 97.7307 462.967 96.5307 463.5C95.3973 463.967 94.1973 464.2 92.9307 464.2C91.5973 464.2 90.364 463.967 89.2307 463.5C88.0973 462.967 87.0973 462.3 86.2307 461.5C85.364 460.633 84.664 459.633 84.1307 458.5C83.664 457.3 83.4307 456.033 83.4307 454.7C83.4307 453.367 83.664 452.133 84.1307 451C84.664 449.8 85.364 448.8 86.2307 448C87.0973 447.133 88.0973 446.467 89.2307 446C90.364 445.467 91.5973 445.2 92.9307 445.2C94.1973 445.2 95.3973 445.467 96.5307 446C97.7307 446.467 98.764 447.133 99.6307 448C100.497 448.8 101.164 449.8 101.631 451C102.164 452.133 102.431 453.367 102.431 454.7ZM165.661 511.8H163.861C163.328 512.933 162.661 514.033 161.861 515.1C161.128 516.1 160.128 517 158.861 517.8C157.661 518.6 156.194 519.233 154.461 519.7C152.794 520.167 150.761 520.4 148.361 520.4C145.294 520.4 142.428 519.867 139.761 518.8C137.161 517.667 134.861 516.033 132.861 513.9C130.928 511.7 129.394 509.033 128.261 505.9C127.194 502.767 126.661 499.167 126.661 495.1V493.3C126.661 489.3 127.228 485.733 128.361 482.6C129.561 479.467 131.161 476.833 133.161 474.7C135.228 472.5 137.594 470.833 140.261 469.7C142.994 468.567 145.861 468 148.861 468C152.861 468 156.028 468.767 158.361 470.3C160.694 471.767 162.528 473.867 163.861 476.6H165.661V469.4H178.261V531.2C178.261 533.467 177.528 535.333 176.061 536.8C174.661 538.267 172.828 539 170.561 539H137.161V527H162.961C164.761 527 165.661 526 165.661 524V511.8ZM152.461 508.4C156.394 508.4 159.561 507.167 161.961 504.7C164.428 502.167 165.661 498.867 165.661 494.8V493.6C165.661 489.533 164.428 486.267 161.961 483.8C159.561 481.267 156.394 480 152.461 480C148.528 480 145.328 481.233 142.861 483.7C140.461 486.1 139.261 489.4 139.261 493.6V494.8C139.261 499 140.461 502.333 142.861 504.8C145.328 507.2 148.528 508.4 152.461 508.4ZM225.092 469.4H237.692V519H225.092V511.8H223.292C221.092 517.533 216.358 520.4 209.092 520.4C206.625 520.4 204.325 520 202.192 519.2C200.058 518.4 198.192 517.167 196.592 515.5C194.992 513.833 193.725 511.767 192.792 509.3C191.925 506.767 191.492 503.8 191.492 500.4V469.4H204.092V497.8C204.092 501.333 204.925 504.1 206.592 506.1C208.258 508.033 210.758 509 214.092 509C217.892 509 220.658 507.8 222.392 505.4C224.192 502.933 225.092 499.6 225.092 495.4V469.4ZM263.822 498.3C263.889 499.767 264.222 501.133 264.822 502.4C265.489 503.6 266.355 504.667 267.422 505.6C268.555 506.467 269.822 507.167 271.222 507.7C272.689 508.167 274.222 508.4 275.822 508.4C278.955 508.4 281.355 507.867 283.022 506.8C284.689 505.667 285.889 504.333 286.622 502.8L297.422 508.8C296.822 510.067 295.989 511.4 294.922 512.8C293.855 514.133 292.455 515.367 290.722 516.5C289.055 517.633 286.989 518.567 284.522 519.3C282.122 520.033 279.289 520.4 276.022 520.4C272.289 520.4 268.889 519.8 265.822 518.6C262.755 517.4 260.089 515.667 257.822 513.4C255.622 511.133 253.889 508.367 252.622 505.1C251.422 501.833 250.822 498.133 250.822 494V493.4C250.822 489.6 251.455 486.133 252.722 483C254.055 479.867 255.855 477.2 258.122 475C260.389 472.8 263.022 471.1 266.022 469.9C269.089 468.633 272.355 468 275.822 468C280.089 468 283.755 468.767 286.822 470.3C289.889 471.767 292.422 473.667 294.422 476C296.422 478.267 297.889 480.8 298.822 483.6C299.755 486.333 300.222 489 300.222 491.6V498.3H263.822ZM275.722 479.4C272.522 479.4 269.922 480.233 267.922 481.9C265.922 483.5 264.622 485.367 264.022 487.5H287.422C287.022 485.167 285.755 483.233 283.622 481.7C281.555 480.167 278.922 479.4 275.722 479.4ZM313.653 507H331.053V461H314.253V449H343.653V507H359.853V519H313.653V507ZM431.013 449H444.613L458.313 512.4H460.113L473.813 449H487.413L471.613 519H446.813L431.013 449ZM508.744 498.3C508.811 499.767 509.144 501.133 509.744 502.4C510.411 503.6 511.277 504.667 512.344 505.6C513.477 506.467 514.744 507.167 516.144 507.7C517.611 508.167 519.144 508.4 520.744 508.4C523.877 508.4 526.277 507.867 527.944 506.8C529.611 505.667 530.811 504.333 531.544 502.8L542.344 508.8C541.744 510.067 540.911 511.4 539.844 512.8C538.777 514.133 537.377 515.367 535.644 516.5C533.977 517.633 531.911 518.567 529.444 519.3C527.044 520.033 524.211 520.4 520.944 520.4C517.211 520.4 513.811 519.8 510.744 518.6C507.677 517.4 505.011 515.667 502.744 513.4C500.544 511.133 498.811 508.367 497.544 505.1C496.344 501.833 495.744 498.133 495.744 494V493.4C495.744 489.6 496.377 486.133 497.644 483C498.977 479.867 500.777 477.2 503.044 475C505.311 472.8 507.944 471.1 510.944 469.9C514.011 468.633 517.277 468 520.744 468C525.011 468 528.677 468.767 531.744 470.3C534.811 471.767 537.344 473.667 539.344 476C541.344 478.267 542.811 480.8 543.744 483.6C544.677 486.333 545.144 489 545.144 491.6V498.3H508.744ZM520.644 479.4C517.444 479.4 514.844 480.233 512.844 481.9C510.844 483.5 509.544 485.367 508.944 487.5H532.344C531.944 485.167 530.677 483.233 528.544 481.7C526.477 480.167 523.844 479.4 520.644 479.4ZM558.574 507H575.974V461H559.174V449H588.574V507H604.774V519H558.574V507ZM652.205 511.8C650.872 514.933 649.005 517.167 646.605 518.5C644.205 519.767 641.405 520.4 638.205 520.4C635.205 520.4 632.372 519.833 629.705 518.7C627.105 517.567 624.805 515.9 622.805 513.7C620.805 511.5 619.205 508.833 618.005 505.7C616.872 502.567 616.305 499 616.305 495V493.4C616.305 489.467 616.872 485.933 618.005 482.8C619.138 479.667 620.672 477 622.605 474.8C624.538 472.6 626.772 470.933 629.305 469.8C631.905 468.6 634.672 468 637.605 468C641.138 468 643.972 468.6 646.105 469.8C648.305 471 650.038 472.867 651.305 475.4H653.105V469.4H665.705V504C665.705 506 666.605 507 668.405 507H670.305V519H661.705C659.438 519 657.572 518.333 656.105 517C654.705 515.667 654.005 513.933 654.005 511.8H652.205ZM641.005 508.4C644.672 508.4 647.605 507.2 649.805 504.8C652.005 502.333 653.105 499 653.105 494.8V493.6C653.105 489.4 652.005 486.1 649.805 483.7C647.605 481.233 644.672 480 641.005 480C637.338 480 634.405 481.233 632.205 483.7C630.005 486.1 628.905 489.4 628.905 493.6V494.8C628.905 499 630.005 502.333 632.205 504.8C634.405 507.2 637.338 508.4 641.005 508.4ZM697.135 483.4C697.135 485 697.969 486.167 699.635 486.9C701.302 487.567 704.335 488.133 708.735 488.6C713.802 489.133 717.935 490.667 721.135 493.2C724.335 495.667 725.935 499.133 725.935 503.6V504.2C725.935 509.133 724.135 513.067 720.535 516C716.935 518.933 711.869 520.4 705.335 520.4C701.469 520.4 698.169 519.9 695.435 518.9C692.702 517.9 690.435 516.667 688.635 515.2C686.835 513.667 685.435 512 684.435 510.2C683.502 508.333 682.869 506.533 682.535 504.8L694.135 501C694.669 503.133 695.769 505 697.435 506.6C699.169 508.2 701.802 509 705.335 509C708.469 509 710.602 508.533 711.735 507.6C712.935 506.6 713.535 505.533 713.535 504.4C713.535 503.733 713.369 503.133 713.035 502.6C712.769 502 712.235 501.467 711.435 501C710.635 500.467 709.535 500.033 708.135 499.7C706.802 499.367 705.102 499.1 703.035 498.9C697.435 498.433 692.969 497 689.635 494.6C686.369 492.133 684.735 488.533 684.735 483.8V483.2C684.735 480.733 685.269 478.567 686.335 476.7C687.402 474.833 688.802 473.267 690.535 472C692.269 470.667 694.269 469.667 696.535 469C698.802 468.333 701.135 468 703.535 468C706.669 468 709.369 468.4 711.635 469.2C713.969 469.933 715.935 470.933 717.535 472.2C719.135 473.4 720.435 474.767 721.435 476.3C722.435 477.767 723.202 479.2 723.735 480.6L712.335 485.2C711.735 483.4 710.702 482 709.235 481C707.769 479.933 705.869 479.4 703.535 479.4C701.402 479.4 699.802 479.8 698.735 480.6C697.669 481.333 697.135 482.267 697.135 483.4ZM778.166 511.8H776.366C775.832 512.933 775.166 514.033 774.366 515.1C773.632 516.1 772.632 517 771.366 517.8C770.166 518.6 768.699 519.233 766.966 519.7C765.299 520.167 763.266 520.4 760.866 520.4C757.799 520.4 754.932 519.867 752.266 518.8C749.666 517.667 747.366 516.033 745.366 513.9C743.432 511.7 741.899 509.033 740.766 505.9C739.699 502.767 739.166 499.167 739.166 495.1V493.3C739.166 489.3 739.732 485.733 740.866 482.6C742.066 479.467 743.666 476.833 745.666 474.7C747.732 472.5 750.099 470.833 752.766 469.7C755.499 468.567 758.366 468 761.366 468C765.366 468 768.532 468.767 770.866 470.3C773.199 471.767 775.032 473.867 776.366 476.6H778.166V469.4H790.766V539H778.166V511.8ZM764.966 508.4C768.899 508.4 772.066 507.167 774.466 504.7C776.932 502.167 778.166 498.867 778.166 494.8V493.6C778.166 489.533 776.932 486.267 774.466 483.8C772.066 481.267 768.899 480 764.966 480C761.032 480 757.832 481.233 755.366 483.7C752.966 486.1 751.766 489.4 751.766 493.6V494.8C751.766 499 752.966 502.333 755.366 504.8C757.832 507.2 761.032 508.4 764.966 508.4ZM837.396 469.4H849.996V519H837.396V511.8H835.596C833.396 517.533 828.663 520.4 821.396 520.4C818.93 520.4 816.63 520 814.496 519.2C812.363 518.4 810.496 517.167 808.896 515.5C807.296 513.833 806.03 511.767 805.096 509.3C804.23 506.767 803.796 503.8 803.796 500.4V469.4H816.396V497.8C816.396 501.333 817.23 504.1 818.896 506.1C820.563 508.033 823.063 509 826.396 509C830.196 509 832.963 507.8 834.696 505.4C836.496 502.933 837.396 499.6 837.396 495.4V469.4ZM876.127 498.3C876.193 499.767 876.527 501.133 877.127 502.4C877.793 503.6 878.66 504.667 879.727 505.6C880.86 506.467 882.127 507.167 883.527 507.7C884.993 508.167 886.527 508.4 888.127 508.4C891.26 508.4 893.66 507.867 895.327 506.8C896.993 505.667 898.193 504.333 898.927 502.8L909.727 508.8C909.127 510.067 908.293 511.4 907.227 512.8C906.16 514.133 904.76 515.367 903.027 516.5C901.36 517.633 899.293 518.567 896.827 519.3C894.427 520.033 891.593 520.4 888.327 520.4C884.593 520.4 881.193 519.8 878.127 518.6C875.06 517.4 872.393 515.667 870.127 513.4C867.927 511.133 866.193 508.367 864.927 505.1C863.727 501.833 863.127 498.133 863.127 494V493.4C863.127 489.6 863.76 486.133 865.027 483C866.36 479.867 868.16 477.2 870.427 475C872.693 472.8 875.327 471.1 878.327 469.9C881.393 468.633 884.66 468 888.127 468C892.393 468 896.06 468.767 899.127 470.3C902.193 471.767 904.727 473.667 906.727 476C908.727 478.267 910.193 480.8 911.127 483.6C912.06 486.333 912.527 489 912.527 491.6V498.3H876.127ZM888.027 479.4C884.827 479.4 882.227 480.233 880.227 481.9C878.227 483.5 876.927 485.367 876.327 487.5H899.727C899.327 485.167 898.06 483.233 895.927 481.7C893.86 480.167 891.227 479.4 888.027 479.4ZM970.757 507V519H927.557V498L958.757 482.8V481H928.157V469.4H969.557V489.8L938.357 505.2V507H970.757Z" fill="white"/>
<path d="M3.42018 574.8H18.9002V577.608H6.44418V585.96H18.6842V588.768H6.44418V600H3.42018V574.8ZM37.9192 582.144H40.7272V600H37.9192V596.76H37.4872C36.9112 597.912 36.1552 598.824 35.2192 599.496C34.2832 600.168 33.0952 600.504 31.6552 600.504C30.6712 600.504 29.7592 600.336 28.9192 600C28.1032 599.688 27.3952 599.208 26.7952 598.56C26.2192 597.912 25.7632 597.108 25.4272 596.148C25.1152 595.188 24.9592 594.072 24.9592 592.8V582.144H27.7672V592.44C27.7672 594.312 28.1512 595.68 28.9192 596.544C29.6872 597.408 30.8632 597.84 32.4472 597.84C34.1512 597.84 35.4832 597.264 36.4432 596.112C37.4272 594.936 37.9192 593.376 37.9192 591.432V582.144ZM47.2181 597.408H53.6981V577.392H47.4341V574.8H56.5061V597.408H62.9861V600H47.2181V597.408ZM69.2611 597.408H75.7411V577.392H69.4771V574.8H78.5491V597.408H85.0291V600H69.2611V597.408ZM105.128 582.072C105.128 581.256 104.96 580.536 104.624 579.912C104.312 579.288 103.88 578.772 103.328 578.364C102.776 577.956 102.14 577.644 101.42 577.428C100.7 577.212 99.9441 577.104 99.1521 577.104C98.4561 577.104 97.7961 577.2 97.1721 577.392C96.5481 577.56 95.9841 577.812 95.4801 578.148C95.0001 578.484 94.6161 578.904 94.3281 579.408C94.0401 579.888 93.8961 580.452 93.8961 581.1V581.316C93.8961 582.012 94.0401 582.612 94.3281 583.116C94.6161 583.596 95.0361 584.016 95.5881 584.376C96.1641 584.712 96.8721 585 97.7121 585.24C98.5521 585.456 99.5361 585.648 100.664 585.816C103.304 586.224 105.248 587.004 106.496 588.156C107.744 589.284 108.368 590.808 108.368 592.728V593.16C108.368 594.24 108.176 595.236 107.792 596.148C107.432 597.036 106.88 597.804 106.136 598.452C105.416 599.1 104.516 599.604 103.436 599.964C102.356 600.324 101.108 600.504 99.6921 600.504C98.0841 600.504 96.6561 600.276 95.4081 599.82C94.1841 599.34 93.1521 598.692 92.3121 597.876C91.4961 597.036 90.8721 596.064 90.4401 594.96C90.0081 593.832 89.7921 592.608 89.7921 591.288V590.208H92.8161V591.072C92.8161 593.28 93.4161 594.936 94.6161 596.04C95.8401 597.144 97.5321 597.696 99.6921 597.696C101.564 597.696 102.968 597.288 103.904 596.472C104.864 595.632 105.344 594.528 105.344 593.16V592.944C105.344 591.624 104.852 590.616 103.868 589.92C102.908 589.224 101.336 588.72 99.1521 588.408C97.8801 588.24 96.7281 587.988 95.6961 587.652C94.6881 587.292 93.8241 586.836 93.1041 586.284C92.3841 585.708 91.8321 585.024 91.4481 584.232C91.0641 583.44 90.8721 582.504 90.8721 581.424V580.992C90.8721 580.008 91.0761 579.108 91.4841 578.292C91.8921 577.476 92.4561 576.768 93.1761 576.168C93.9201 575.568 94.7961 575.112 95.8041 574.8C96.8361 574.464 97.9641 574.296 99.1881 574.296C100.604 574.296 101.864 574.5 102.968 574.908C104.096 575.316 105.044 575.868 105.812 576.564C106.58 577.236 107.156 578.04 107.54 578.976C107.948 579.888 108.152 580.848 108.152 581.856V583.368H105.128V582.072ZM112.735 582.144H118.351V574.8H121.159V582.144H128.071V584.736H121.159V596.328C121.159 597.048 121.483 597.408 122.131 597.408H127.207V600H121.123C120.307 600 119.635 599.736 119.107 599.208C118.603 598.68 118.351 598.008 118.351 597.192V584.736H112.735V582.144ZM148.35 596.976H147.918C147.342 598.176 146.538 599.064 145.506 599.64C144.498 600.216 143.43 600.504 142.302 600.504C141.126 600.504 140.034 600.312 139.026 599.928C138.018 599.52 137.13 598.932 136.362 598.164C135.618 597.372 135.03 596.412 134.598 595.284C134.166 594.156 133.95 592.848 133.95 591.36V590.784C133.95 589.32 134.166 588.024 134.598 586.896C135.03 585.768 135.618 584.82 136.362 584.052C137.13 583.26 138.018 582.66 139.026 582.252C140.034 581.844 141.102 581.64 142.23 581.64C143.454 581.64 144.558 581.916 145.542 582.468C146.55 582.996 147.342 583.824 147.918 584.952H148.35V582.144H151.158V596.328C151.158 597.048 151.482 597.408 152.13 597.408H153.03V600H151.122C150.306 600 149.634 599.736 149.106 599.208C148.602 598.68 148.35 598.008 148.35 597.192V596.976ZM142.59 597.84C143.43 597.84 144.198 597.684 144.894 597.372C145.614 597.06 146.226 596.616 146.73 596.04C147.234 595.464 147.63 594.78 147.918 593.988C148.206 593.172 148.35 592.272 148.35 591.288V590.856C148.35 589.896 148.206 589.02 147.918 588.228C147.63 587.412 147.222 586.716 146.694 586.14C146.19 585.564 145.578 585.12 144.858 584.808C144.162 584.472 143.406 584.304 142.59 584.304C141.75 584.304 140.982 584.46 140.286 584.772C139.59 585.084 138.978 585.528 138.45 586.104C137.946 586.656 137.55 587.34 137.262 588.156C136.974 588.948 136.83 589.824 136.83 590.784V591.36C136.83 593.4 137.358 594.996 138.414 596.148C139.494 597.276 140.886 597.84 142.59 597.84ZM174.137 593.664C173.945 594.648 173.609 595.56 173.129 596.4C172.673 597.24 172.085 597.972 171.365 598.596C170.645 599.196 169.805 599.664 168.845 600C167.885 600.336 166.817 600.504 165.641 600.504C164.393 600.504 163.205 600.3 162.077 599.892C160.973 599.484 160.001 598.896 159.161 598.128C158.321 597.336 157.649 596.376 157.145 595.248C156.665 594.12 156.425 592.824 156.425 591.36V590.928C156.425 589.488 156.665 588.192 157.145 587.04C157.649 585.888 158.321 584.916 159.161 584.124C160.001 583.332 160.973 582.72 162.077 582.288C163.205 581.856 164.393 581.64 165.641 581.64C166.769 581.64 167.813 581.808 168.773 582.144C169.733 582.48 170.573 582.96 171.293 583.584C172.037 584.184 172.637 584.904 173.093 585.744C173.573 586.584 173.897 587.496 174.065 588.48L171.257 589.128C171.185 588.504 171.005 587.904 170.717 587.328C170.453 586.728 170.081 586.212 169.601 585.78C169.145 585.324 168.581 584.964 167.909 584.7C167.237 584.436 166.457 584.304 165.569 584.304C164.705 584.304 163.889 584.472 163.121 584.808C162.377 585.12 161.717 585.576 161.141 586.176C160.565 586.752 160.109 587.448 159.773 588.264C159.461 589.08 159.305 589.968 159.305 590.928V591.36C159.305 592.368 159.461 593.28 159.773 594.096C160.109 594.888 160.565 595.56 161.141 596.112C161.717 596.664 162.389 597.096 163.157 597.408C163.925 597.696 164.753 597.84 165.641 597.84C166.529 597.84 167.297 597.708 167.945 597.444C168.617 597.156 169.181 596.796 169.637 596.364C170.117 595.908 170.489 595.392 170.753 594.816C171.041 594.24 171.233 593.64 171.329 593.016L174.137 593.664ZM184.084 589.56H184.696L191.5 582.144H194.956V582.36L187.54 590.532V591.18L195.82 599.784V600H192.364L184.768 592.152H184.084V600H181.276V574.8H184.084V589.56ZM223.058 574.8H231.338C234.458 574.8 236.738 575.544 238.178 577.032C239.618 578.52 240.338 580.896 240.338 584.16V590.64C240.338 593.904 239.618 596.28 238.178 597.768C236.738 599.256 234.458 600 231.338 600H223.058V597.156H225.218V577.608H223.058V574.8ZM230.906 597.192C232.01 597.192 232.958 597.084 233.75 596.868C234.566 596.652 235.238 596.292 235.766 595.788C236.294 595.26 236.678 594.564 236.918 593.7C237.182 592.836 237.314 591.744 237.314 590.424V584.376C237.314 583.056 237.182 581.964 236.918 581.1C236.678 580.236 236.294 579.552 235.766 579.048C235.238 578.52 234.566 578.148 233.75 577.932C232.958 577.716 232.01 577.608 230.906 577.608H228.242V597.192H230.906ZM247.657 591.936C247.729 593.712 248.281 595.14 249.313 596.22C250.345 597.3 251.785 597.84 253.633 597.84C254.473 597.84 255.205 597.744 255.829 597.552C256.453 597.36 256.981 597.096 257.413 596.76C257.869 596.424 258.229 596.04 258.493 595.608C258.781 595.152 259.009 594.672 259.177 594.168L261.841 594.888C261.337 596.544 260.401 597.9 259.033 598.956C257.689 599.988 255.865 600.504 253.561 600.504C252.289 600.504 251.113 600.288 250.033 599.856C248.977 599.4 248.065 598.764 247.297 597.948C246.529 597.132 245.929 596.16 245.497 595.032C245.065 593.904 244.849 592.656 244.849 591.288V590.424C244.849 589.176 245.065 588.012 245.497 586.932C245.953 585.852 246.577 584.928 247.369 584.16C248.161 583.368 249.085 582.756 250.141 582.324C251.221 581.868 252.385 581.64 253.633 581.64C255.097 581.64 256.357 581.916 257.413 582.468C258.493 582.996 259.369 583.656 260.041 584.448C260.737 585.24 261.241 586.104 261.553 587.04C261.889 587.976 262.057 588.84 262.057 589.632V591.936H247.657ZM253.633 584.304C252.841 584.304 252.097 584.436 251.401 584.7C250.729 584.94 250.129 585.288 249.601 585.744C249.097 586.2 248.677 586.74 248.341 587.364C248.029 587.964 247.825 588.624 247.729 589.344H259.249C259.201 588.576 259.009 587.88 258.673 587.256C258.361 586.632 257.941 586.104 257.413 585.672C256.909 585.24 256.321 584.904 255.649 584.664C255.001 584.424 254.329 584.304 253.633 584.304ZM278.268 600H272.724L266.496 582.144H269.808L275.28 598.704H275.712L281.184 582.144H284.496L278.268 600ZM291.743 591.936C291.815 593.712 292.367 595.14 293.399 596.22C294.431 597.3 295.871 597.84 297.719 597.84C298.559 597.84 299.291 597.744 299.915 597.552C300.539 597.36 301.067 597.096 301.499 596.76C301.955 596.424 302.315 596.04 302.579 595.608C302.867 595.152 303.095 594.672 303.263 594.168L305.927 594.888C305.423 596.544 304.487 597.9 303.119 598.956C301.775 599.988 299.951 600.504 297.647 600.504C296.375 600.504 295.199 600.288 294.119 599.856C293.063 599.4 292.151 598.764 291.383 597.948C290.615 597.132 290.015 596.16 289.583 595.032C289.151 593.904 288.935 592.656 288.935 591.288V590.424C288.935 589.176 289.151 588.012 289.583 586.932C290.039 585.852 290.663 584.928 291.455 584.16C292.247 583.368 293.171 582.756 294.227 582.324C295.307 581.868 296.471 581.64 297.719 581.64C299.183 581.64 300.443 581.916 301.499 582.468C302.579 582.996 303.455 583.656 304.127 584.448C304.823 585.24 305.327 586.104 305.639 587.04C305.975 587.976 306.143 588.84 306.143 589.632V591.936H291.743ZM297.719 584.304C296.927 584.304 296.183 584.436 295.487 584.7C294.815 584.94 294.215 585.288 293.687 585.744C293.183 586.2 292.763 586.74 292.427 587.364C292.115 587.964 291.911 588.624 291.815 589.344H303.335C303.287 588.576 303.095 587.88 302.759 587.256C302.447 586.632 302.027 586.104 301.499 585.672C300.995 585.24 300.407 584.904 299.735 584.664C299.087 584.424 298.415 584.304 297.719 584.304ZM311.734 597.408H318.214V577.392H311.95V574.8H321.022V597.408H327.502V600H311.734V597.408ZM350.625 591.288C350.625 592.776 350.373 594.096 349.869 595.248C349.389 596.376 348.741 597.336 347.925 598.128C347.109 598.896 346.149 599.484 345.045 599.892C343.965 600.3 342.837 600.504 341.661 600.504C340.461 600.504 339.321 600.3 338.241 599.892C337.161 599.484 336.213 598.896 335.397 598.128C334.581 597.336 333.921 596.376 333.417 595.248C332.937 594.096 332.697 592.776 332.697 591.288V590.856C332.697 589.392 332.937 588.096 333.417 586.968C333.921 585.816 334.581 584.844 335.397 584.052C336.237 583.26 337.197 582.66 338.277 582.252C339.357 581.844 340.485 581.64 341.661 581.64C342.837 581.64 343.965 581.844 345.045 582.252C346.125 582.66 347.073 583.26 347.889 584.052C348.729 584.844 349.389 585.816 349.869 586.968C350.373 588.096 350.625 589.392 350.625 590.856V591.288ZM341.661 597.84C342.525 597.84 343.317 597.696 344.037 597.408C344.781 597.096 345.429 596.652 345.981 596.076C346.533 595.5 346.965 594.816 347.277 594.024C347.589 593.208 347.745 592.296 347.745 591.288V590.856C347.745 589.896 347.589 589.02 347.277 588.228C346.965 587.412 346.533 586.716 345.981 586.14C345.429 585.564 344.781 585.12 344.037 584.808C343.293 584.472 342.501 584.304 341.661 584.304C340.821 584.304 340.029 584.472 339.285 584.808C338.541 585.12 337.893 585.564 337.341 586.14C336.789 586.716 336.357 587.412 336.045 588.228C335.733 589.02 335.577 589.896 335.577 590.856V591.288C335.577 592.296 335.733 593.208 336.045 594.024C336.357 594.816 336.789 595.5 337.341 596.076C337.893 596.652 338.529 597.096 339.249 597.408C339.993 597.696 340.797 597.84 341.661 597.84ZM357.98 607.2H355.172V582.144H357.98V584.952H358.412C359.036 583.872 359.9 583.056 361.004 582.504C362.108 581.928 363.308 581.64 364.604 581.64C365.708 581.64 366.752 581.844 367.736 582.252C368.72 582.66 369.584 583.248 370.328 584.016C371.096 584.784 371.696 585.732 372.128 586.86C372.584 587.988 372.812 589.272 372.812 590.712V591.432C372.812 592.896 372.596 594.192 372.164 595.32C371.732 596.448 371.132 597.396 370.364 598.164C369.62 598.932 368.744 599.52 367.736 599.928C366.728 600.312 365.66 600.504 364.532 600.504C363.956 600.504 363.368 600.432 362.768 600.288C362.168 600.168 361.592 599.976 361.04 599.712C360.512 599.424 360.02 599.088 359.564 598.704C359.108 598.296 358.724 597.816 358.412 597.264H357.98V607.2ZM363.956 597.84C364.82 597.84 365.612 597.696 366.332 597.408C367.052 597.096 367.676 596.664 368.204 596.112C368.756 595.56 369.176 594.888 369.464 594.096C369.776 593.304 369.932 592.416 369.932 591.432V590.712C369.932 589.752 369.776 588.888 369.464 588.12C369.176 587.328 368.756 586.656 368.204 586.104C367.676 585.528 367.04 585.084 366.296 584.772C365.576 584.46 364.796 584.304 363.956 584.304C363.116 584.304 362.336 584.472 361.616 584.808C360.896 585.12 360.26 585.564 359.708 586.14C359.18 586.716 358.76 587.412 358.448 588.228C358.136 589.02 357.98 589.896 357.98 590.856V591.288C357.98 592.272 358.136 593.172 358.448 593.988C358.76 594.78 359.18 595.464 359.708 596.04C360.26 596.616 360.896 597.06 361.616 597.372C362.336 597.684 363.116 597.84 363.956 597.84ZM379.915 591.936C379.987 593.712 380.539 595.14 381.571 596.22C382.603 597.3 384.043 597.84 385.891 597.84C386.731 597.84 387.463 597.744 388.087 597.552C388.711 597.36 389.239 597.096 389.671 596.76C390.127 596.424 390.487 596.04 390.751 595.608C391.039 595.152 391.267 594.672 391.435 594.168L394.099 594.888C393.595 596.544 392.659 597.9 391.291 598.956C389.947 599.988 388.123 600.504 385.819 600.504C384.547 600.504 383.371 600.288 382.291 599.856C381.235 599.4 380.323 598.764 379.555 597.948C378.787 597.132 378.187 596.16 377.755 595.032C377.323 593.904 377.107 592.656 377.107 591.288V590.424C377.107 589.176 377.323 588.012 377.755 586.932C378.211 585.852 378.835 584.928 379.627 584.16C380.419 583.368 381.343 582.756 382.399 582.324C383.479 581.868 384.643 581.64 385.891 581.64C387.355 581.64 388.615 581.916 389.671 582.468C390.751 582.996 391.627 583.656 392.299 584.448C392.995 585.24 393.499 586.104 393.811 587.04C394.147 587.976 394.315 588.84 394.315 589.632V591.936H379.915ZM385.891 584.304C385.099 584.304 384.355 584.436 383.659 584.7C382.987 584.94 382.387 585.288 381.859 585.744C381.355 586.2 380.935 586.74 380.599 587.364C380.287 587.964 380.083 588.624 379.987 589.344H391.507C391.459 588.576 391.267 587.88 390.931 587.256C390.619 586.632 390.199 586.104 389.671 585.672C389.167 585.24 388.579 584.904 387.907 584.664C387.259 584.424 386.587 584.304 385.891 584.304ZM398.898 582.144H405.378V584.52H405.81C406.266 583.536 406.914 582.816 407.754 582.36C408.594 581.88 409.554 581.64 410.634 581.64C412.434 581.64 413.886 582.228 414.99 583.404C416.094 584.58 416.682 586.296 416.754 588.552L413.802 588.984C413.802 587.328 413.406 586.14 412.614 585.42C411.822 584.676 410.85 584.304 409.698 584.304C408.954 584.304 408.306 584.448 407.754 584.736C407.226 585.024 406.782 585.42 406.422 585.924C406.062 586.428 405.798 587.016 405.63 587.688C405.462 588.36 405.378 589.08 405.378 589.848V597.408H409.914V600H398.466V597.408H402.57V584.736H398.898V582.144ZM455.872 570.984L458.392 571.776L447.916 603.816L445.36 603.024L455.872 570.984ZM477.915 570.984L480.435 571.776L469.959 603.816L467.403 603.024L477.915 570.984ZM512.388 574.8V591.504C512.388 593.544 512.856 595.092 513.792 596.148C514.752 597.18 516.156 597.696 518.004 597.696C519.852 597.696 521.244 597.18 522.18 596.148C523.14 595.092 523.62 593.544 523.62 591.504V574.8H526.644V591.504C526.644 594.432 525.876 596.664 524.34 598.2C522.804 599.736 520.692 600.504 518.004 600.504C515.316 600.504 513.204 599.736 511.668 598.2C510.132 596.664 509.364 594.432 509.364 591.504V574.8H512.388ZM534.071 574.8L539.723 585.96H540.371L546.023 574.8H549.335L543.035 587.148V587.58L549.335 600H546.023L540.371 588.768H539.723L534.071 600H530.759L537.059 587.58V587.148L530.759 574.8H534.071ZM593.997 588.768H590.505V600H582.441C581.241 600 580.173 599.832 579.237 599.496C578.301 599.16 577.521 598.704 576.897 598.128C576.273 597.528 575.793 596.832 575.457 596.04C575.145 595.224 574.989 594.348 574.989 593.412V592.98C574.989 591.612 575.397 590.46 576.213 589.524C577.029 588.564 578.037 587.916 579.237 587.58V587.148C578.037 586.836 577.029 586.212 576.213 585.276C575.397 584.316 574.989 583.152 574.989 581.784V581.352C574.989 580.416 575.145 579.552 575.457 578.76C575.793 577.944 576.273 577.248 576.897 576.672C577.521 576.096 578.301 575.64 579.237 575.304C580.173 574.968 581.241 574.8 582.441 574.8H587.049V577.608H582.657C581.241 577.608 580.089 577.968 579.201 578.688C578.313 579.384 577.869 580.344 577.869 581.568V581.784C577.869 583.08 578.289 584.1 579.129 584.844C579.969 585.588 581.109 585.96 582.549 585.96H587.481V582.144H590.505V585.96H593.997V588.768ZM587.481 597.192V588.768H582.549C581.109 588.768 579.969 589.152 579.129 589.92C578.289 590.664 577.869 591.684 577.869 592.98V593.196C577.869 594.444 578.313 595.428 579.201 596.148C580.089 596.844 581.241 597.192 582.657 597.192H587.481ZM622.603 574.8V591.504C622.603 593.544 623.071 595.092 624.007 596.148C624.967 597.18 626.371 597.696 628.219 597.696C630.067 597.696 631.459 597.18 632.395 596.148C633.355 595.092 633.835 593.544 633.835 591.504V574.8H636.859V591.504C636.859 594.432 636.091 596.664 634.555 598.2C633.019 599.736 630.907 600.504 628.219 600.504C625.531 600.504 623.419 599.736 621.883 598.2C620.347 596.664 619.579 594.432 619.579 591.504V574.8H622.603ZM642.27 574.8H658.254V577.608H651.774V597.192H658.254V600H642.27V597.192H648.75V577.608H642.27V574.8Z" fill="white" fill-opacity="0.9"/>
<line x1="431" y1="449.5" x2="1134" y2="449.5" stroke="white"/>
<line x1="2.5" y1="450" x2="2.49997" y2="-269" stroke="white"/>
</svg>
